<svg width="171" height="36" viewBox="0 0 171 36" fill="none" xmlns="http://www.w3.org/2000/svg">
<path fill-rule="evenodd" clip-rule="evenodd" d="M27.8333 18C27.8333 25.0877 22.0877 30.8333 15 30.8333C7.91234 30.8333 2.16666 25.0877 2.16666 18C2.16666 10.9123 7.91234 5.16666 15 5.16666C22.0877 5.16666 27.8333 10.9123 27.8333 18ZM30 18C30 26.2843 23.2843 33 15 33C6.71573 33 0 26.2843 0 18C0 9.71573 6.71573 3 15 3C23.2843 3 30 9.71573 30 18ZM23.2759 11.2759C23.2759 12.1329 22.5812 12.8276 21.7242 12.8276C20.8672 12.8276 20.1725 12.1329 20.1725 11.2759C20.1725 10.4189 20.8672 9.72418 21.7242 9.72418C22.5812 9.72418 23.2759 10.4189 23.2759 11.2759ZM10.4879 19.209C11.1556 21.7009 13.717 23.1797 16.2089 22.512C18.7008 21.8443 20.1796 19.2829 19.5119 16.791C18.8442 14.2991 16.2828 12.8203 13.7909 13.488C11.299 14.1557 9.82015 16.7171 10.4879 19.209ZM8.39503 19.7698C9.37244 23.4175 13.1219 25.5823 16.7696 24.6049C20.4174 23.6274 22.5821 19.878 21.6047 16.2302C20.6273 12.5825 16.8779 10.4177 13.2301 11.3952C9.58236 12.3726 7.41762 16.122 8.39503 19.7698Z" fill="url(#paint0_linear_183_12)"/>
<path d="M51.8168 13.4929C51.7372 12.6908 51.3958 12.0677 50.7926 11.6236C50.1894 11.1794 49.3707 10.9574 48.3366 10.9574C47.634 10.9574 47.0407 11.0568 46.5568 11.2557C46.0729 11.4479 45.7017 11.7164 45.4432 12.0611C45.1913 12.4058 45.0653 12.7969 45.0653 13.2344C45.0521 13.599 45.1283 13.9171 45.294 14.1889C45.4664 14.4607 45.7017 14.696 46 14.8949C46.2983 15.0871 46.643 15.2562 47.0341 15.402C47.4252 15.5412 47.8428 15.6605 48.2869 15.7599L50.1165 16.1974C51.0047 16.3963 51.8201 16.6615 52.5625 16.9929C53.3049 17.3243 53.9479 17.732 54.4915 18.2159C55.035 18.6998 55.456 19.2699 55.7543 19.9261C56.0592 20.5824 56.215 21.3348 56.2216 22.1832C56.215 23.4295 55.8968 24.5099 55.267 25.4247C54.6439 26.3329 53.7424 27.0388 52.5625 27.5426C51.3892 28.0398 49.974 28.2884 48.3168 28.2884C46.6728 28.2884 45.241 28.0365 44.0213 27.5327C42.8082 27.0289 41.8603 26.2831 41.1776 25.2955C40.5014 24.3011 40.1468 23.0715 40.1136 21.6065H44.2798C44.3262 22.2893 44.5218 22.8594 44.8665 23.3168C45.2178 23.7675 45.6851 24.1089 46.2685 24.3409C46.8584 24.5663 47.5246 24.679 48.267 24.679C48.9962 24.679 49.6293 24.5729 50.1662 24.3608C50.7098 24.1487 51.1307 23.8537 51.429 23.4759C51.7273 23.098 51.8764 22.6638 51.8764 22.1733C51.8764 21.7159 51.7405 21.3314 51.4688 21.0199C51.2036 20.7083 50.8125 20.4432 50.2955 20.2244C49.785 20.0057 49.1586 19.8068 48.4162 19.6278L46.1989 19.071C44.482 18.6534 43.1264 18.0005 42.1321 17.1122C41.1378 16.224 40.6439 15.0275 40.6506 13.5227C40.6439 12.2898 40.9721 11.2126 41.6349 10.2912C42.3045 9.36979 43.2225 8.65057 44.3892 8.13352C45.5559 7.61648 46.8816 7.35795 48.3665 7.35795C49.8778 7.35795 51.197 7.61648 52.3239 8.13352C53.4574 8.65057 54.339 9.36979 54.9688 10.2912C55.5985 11.2126 55.9233 12.2798 55.9432 13.4929H51.8168ZM63.2738 19.1705V28H59.038V12.7273H63.0749V15.4219H63.2539C63.592 14.5336 64.1587 13.831 64.9542 13.3139C65.7496 12.7902 66.7141 12.5284 67.8477 12.5284C68.9083 12.5284 69.833 12.7604 70.6218 13.2244C71.4106 13.6884 72.0238 14.3513 72.4613 15.2131C72.8988 16.0682 73.1175 17.089 73.1175 18.2756V28H68.8817V19.0312C68.8884 18.0966 68.6497 17.3674 68.1658 16.8438C67.6819 16.3134 67.0157 16.0483 66.1673 16.0483C65.5972 16.0483 65.0934 16.1709 64.6559 16.4162C64.225 16.6615 63.887 17.0194 63.6417 17.4901C63.4031 17.9541 63.2804 18.5142 63.2738 19.1705ZM80.8111 28.2884C79.8366 28.2884 78.9683 28.1193 78.206 27.7812C77.4437 27.4366 76.8404 26.9295 76.3963 26.2599C75.9588 25.5838 75.7401 24.742 75.7401 23.7344C75.7401 22.8859 75.8958 22.1733 76.2074 21.5966C76.5189 21.0199 76.9432 20.5559 77.4801 20.2045C78.017 19.8532 78.6269 19.5881 79.3097 19.4091C79.9991 19.2301 80.7216 19.1042 81.4773 19.0312C82.3655 18.9384 83.0814 18.8523 83.625 18.7727C84.1686 18.6866 84.563 18.5606 84.8082 18.3949C85.0535 18.2292 85.1761 17.9839 85.1761 17.6591V17.5994C85.1761 16.9697 84.9773 16.4825 84.5795 16.1378C84.1884 15.7931 83.6316 15.6207 82.9091 15.6207C82.1468 15.6207 81.5402 15.7898 81.0895 16.1278C80.6387 16.4593 80.3404 16.8769 80.1946 17.3807L76.277 17.0625C76.4759 16.1345 76.867 15.3324 77.4503 14.6562C78.0336 13.9735 78.786 13.4498 79.7074 13.0852C80.6354 12.714 81.7093 12.5284 82.929 12.5284C83.7775 12.5284 84.5895 12.6278 85.3651 12.8267C86.1473 13.0256 86.84 13.3338 87.4432 13.7514C88.053 14.169 88.5336 14.706 88.8849 15.3622C89.2363 16.0118 89.4119 16.7907 89.4119 17.6989V28H85.3949V25.8821H85.2756C85.0303 26.3594 84.7022 26.7803 84.2912 27.1449C83.8802 27.5028 83.3864 27.7846 82.8097 27.9901C82.233 28.1889 81.5668 28.2884 80.8111 28.2884ZM82.0241 25.3651C82.6473 25.3651 83.1974 25.2424 83.6747 24.9972C84.152 24.7453 84.5265 24.4072 84.7983 23.983C85.0701 23.5587 85.206 23.0781 85.206 22.5412V20.9205C85.0734 21.0066 84.8911 21.0862 84.6591 21.1591C84.4337 21.2254 84.1785 21.2884 83.8935 21.348C83.6084 21.401 83.3234 21.4508 83.0384 21.4972C82.7533 21.5369 82.4948 21.5734 82.2628 21.6065C81.7656 21.6795 81.3314 21.7955 80.9602 21.9545C80.589 22.1136 80.3007 22.3291 80.0952 22.6009C79.8897 22.866 79.7869 23.1974 79.7869 23.5952C79.7869 24.1719 79.9957 24.6127 80.4134 24.9176C80.8376 25.2159 81.3745 25.3651 82.0241 25.3651ZM92.6982 33.7273V12.7273H96.8743V15.2926H97.0632C97.2488 14.8816 97.5173 14.464 97.8686 14.0398C98.2266 13.6089 98.6906 13.2509 99.2607 12.9659C99.8374 12.6742 100.553 12.5284 101.408 12.5284C102.522 12.5284 103.549 12.8201 104.491 13.4034C105.432 13.9801 106.184 14.8518 106.748 16.0185C107.311 17.1785 107.593 18.6335 107.593 20.3835C107.593 22.0871 107.318 23.5256 106.768 24.6989C106.224 25.8655 105.482 26.7505 104.54 27.3537C103.606 27.9503 102.558 28.2486 101.398 28.2486C100.576 28.2486 99.8771 28.1127 99.3004 27.8409C98.7304 27.5691 98.263 27.2277 97.8984 26.8168C97.5339 26.3991 97.2554 25.9782 97.0632 25.554H96.9339V33.7273H92.6982ZM96.8445 20.3636C96.8445 21.2718 96.9704 22.0639 97.2223 22.7401C97.4742 23.4162 97.8388 23.9432 98.3161 24.321C98.7933 24.6922 99.3733 24.8778 100.056 24.8778C100.746 24.8778 101.329 24.6889 101.806 24.3111C102.283 23.9266 102.645 23.3963 102.89 22.7202C103.142 22.0374 103.268 21.2519 103.268 20.3636C103.268 19.482 103.145 18.7064 102.9 18.0369C102.655 17.3674 102.293 16.8437 101.816 16.4659C101.339 16.0881 100.752 15.8991 100.056 15.8991C99.3667 15.8991 98.7834 16.0814 98.3061 16.446C97.8355 16.8106 97.4742 17.3277 97.2223 17.9972C96.9704 18.6667 96.8445 19.4555 96.8445 20.3636ZM123.124 17.0824L119.246 17.321C119.18 16.9896 119.038 16.6913 118.819 16.4261C118.6 16.1544 118.312 15.9389 117.954 15.7798C117.603 15.6141 117.182 15.5312 116.691 15.5312C116.035 15.5312 115.481 15.6705 115.031 15.9489C114.58 16.2206 114.354 16.5852 114.354 17.0426C114.354 17.4072 114.5 17.7154 114.792 17.9673C115.084 18.2192 115.584 18.4214 116.293 18.5739L119.058 19.1307C120.542 19.4356 121.649 19.9261 122.379 20.6023C123.108 21.2784 123.472 22.1667 123.472 23.267C123.472 24.268 123.177 25.1463 122.587 25.902C122.004 26.6577 121.202 27.2476 120.181 27.6719C119.167 28.0895 117.997 28.2983 116.671 28.2983C114.649 28.2983 113.039 27.8774 111.839 27.0355C110.646 26.187 109.946 25.0336 109.741 23.5753L113.907 23.3565C114.033 23.973 114.338 24.4437 114.822 24.7685C115.306 25.0866 115.925 25.2457 116.681 25.2457C117.424 25.2457 118.02 25.1032 118.471 24.8182C118.928 24.5265 119.16 24.152 119.167 23.6946C119.16 23.3101 118.998 22.9953 118.68 22.75C118.362 22.4981 117.871 22.3059 117.208 22.1733L114.563 21.6463C113.072 21.348 111.961 20.831 111.232 20.0952C110.51 19.3594 110.148 18.4214 110.148 17.2812C110.148 16.3002 110.414 15.455 110.944 14.7457C111.481 14.0365 112.233 13.4896 113.201 13.1051C114.175 12.7206 115.316 12.5284 116.621 12.5284C118.55 12.5284 120.068 12.9361 121.175 13.7514C122.289 14.5668 122.939 15.6771 123.124 17.0824ZM130.375 19.1705V28H126.14V7.63636H130.256V15.4219H130.435C130.78 14.5204 131.337 13.8144 132.105 13.304C132.874 12.7869 133.839 12.5284 134.999 12.5284C136.06 12.5284 136.984 12.7604 137.773 13.2244C138.569 13.6818 139.185 14.3414 139.623 15.2031C140.067 16.0582 140.285 17.0824 140.279 18.2756V28H136.043V19.0312C136.05 18.09 135.811 17.3575 135.327 16.8338C134.85 16.3101 134.18 16.0483 133.319 16.0483C132.742 16.0483 132.231 16.1709 131.787 16.4162C131.35 16.6615 131.005 17.0194 130.753 17.4901C130.508 17.9541 130.382 18.5142 130.375 19.1705ZM150.513 28.2983C148.968 28.2983 147.633 27.9702 146.506 27.3139C145.385 26.651 144.52 25.7296 143.911 24.5497C143.301 23.3632 142.996 21.9877 142.996 20.4233C142.996 18.8456 143.301 17.4669 143.911 16.2869C144.52 15.1004 145.385 14.179 146.506 13.5227C147.633 12.8598 148.968 12.5284 150.513 12.5284C152.057 12.5284 153.39 12.8598 154.51 13.5227C155.637 14.179 156.505 15.1004 157.115 16.2869C157.725 17.4669 158.03 18.8456 158.03 20.4233C158.03 21.9877 157.725 23.3632 157.115 24.5497C156.505 25.7296 155.637 26.651 154.51 27.3139C153.39 27.9702 152.057 28.2983 150.513 28.2983ZM150.533 25.017C151.235 25.017 151.822 24.8182 152.293 24.4205C152.763 24.0161 153.118 23.4659 153.357 22.7699C153.602 22.0739 153.724 21.2817 153.724 20.3935C153.724 19.5052 153.602 18.7131 153.357 18.017C153.118 17.321 152.763 16.7708 152.293 16.3665C151.822 15.9621 151.235 15.7599 150.533 15.7599C149.823 15.7599 149.227 15.9621 148.743 16.3665C148.266 16.7708 147.904 17.321 147.659 18.017C147.42 18.7131 147.301 19.5052 147.301 20.3935C147.301 21.2817 147.42 22.0739 147.659 22.7699C147.904 23.4659 148.266 24.0161 148.743 24.4205C149.227 24.8182 149.823 25.017 150.533 25.017ZM168.908 12.7273V15.9091H159.71V12.7273H168.908ZM161.798 9.06818H166.034V23.3068C166.034 23.6979 166.094 24.0028 166.213 24.2216C166.332 24.4337 166.498 24.5829 166.71 24.669C166.929 24.7552 167.181 24.7983 167.466 24.7983C167.665 24.7983 167.864 24.7817 168.062 24.7486C168.261 24.7088 168.414 24.679 168.52 24.6591L169.186 27.8111C168.974 27.8774 168.676 27.9536 168.291 28.0398C167.907 28.1326 167.439 28.1889 166.889 28.2088C165.868 28.2486 164.973 28.1127 164.205 27.8011C163.442 27.4896 162.849 27.0057 162.425 26.3494C162 25.6932 161.792 24.8646 161.798 23.8636V9.06818Z" fill="white"/>
<defs>
<linearGradient id="paint0_linear_183_12" x1="15" y1="3" x2="15" y2="33" gradientUnits="userSpaceOnUse">
<stop stop-color="#877EFF"/>
<stop offset="0.461458" stop-color="#685DFF"/>
<stop offset="1" stop-color="#3121FF"/>
</linearGradient>
</defs>
</svg>
